<mxfile host="65bd71144e">
    <diagram name="Page-1" id="c4acf3e9-155e-7222-9cf6-157b1a14988f">
        <mxGraphModel dx="1414" dy="809" grid="1" gridSize="10" guides="1" tooltips="1" connect="1" arrows="1" fold="1" page="1" pageScale="1" pageWidth="1100" pageHeight="1700" background="none" math="0" shadow="0">
            <root>
                <mxCell id="0"/>
                <mxCell id="1" parent="0"/>
                <mxCell id="lgAIDfnBKUFEElDfHjq0-1" value="" style="shape=folder;fontStyle=1;spacingTop=10;tabWidth=70;tabHeight=20;tabPosition=left;html=1;" parent="1" vertex="1">
                    <mxGeometry x="40" y="30" width="1060" height="530" as="geometry"/>
                </mxCell>
                <mxCell id="lgAIDfnBKUFEElDfHjq0-10" value="thePOS" style="text;html=1;strokeColor=none;fillColor=none;align=center;verticalAlign=middle;whiteSpace=wrap;rounded=0;" parent="1" vertex="1">
                    <mxGeometry x="46" y="24" width="60" height="30" as="geometry"/>
                </mxCell>
                <mxCell id="2" value="User" style="shape=umlActor;verticalLabelPosition=bottom;verticalAlign=top;html=1;" vertex="1" parent="1">
                    <mxGeometry x="90" y="115" width="30" height="60" as="geometry"/>
                </mxCell>
                <mxCell id="3" value="Administrator" style="shape=umlActor;verticalLabelPosition=bottom;verticalAlign=top;html=1;" vertex="1" parent="1">
                    <mxGeometry x="90" y="255" width="30" height="60" as="geometry"/>
                </mxCell>
                <mxCell id="4" value="" style="rounded=0;whiteSpace=wrap;html=1;" vertex="1" parent="1">
                    <mxGeometry x="200" y="80" width="810" height="420" as="geometry"/>
                </mxCell>
                <mxCell id="5" value="Application ussage" style="text;html=1;strokeColor=none;fillColor=none;align=center;verticalAlign=middle;whiteSpace=wrap;rounded=0;" vertex="1" parent="1">
                    <mxGeometry x="550" y="80" width="110" height="30" as="geometry"/>
                </mxCell>
                <mxCell id="6" value="Security" style="shape=umlActor;verticalLabelPosition=bottom;verticalAlign=top;html=1;" vertex="1" parent="1">
                    <mxGeometry x="1040" y="115" width="30" height="60" as="geometry"/>
                </mxCell>
                <mxCell id="8" value="Database" style="shape=cylinder3;whiteSpace=wrap;html=1;boundedLbl=1;backgroundOutline=1;size=15;" vertex="1" parent="1">
                    <mxGeometry x="1026.25" y="370" width="57.5" height="60" as="geometry"/>
                </mxCell>
                <mxCell id="10" value="Take food picture" style="ellipse;whiteSpace=wrap;html=1;" vertex="1" parent="1">
                    <mxGeometry x="220" y="120" width="100" height="50" as="geometry"/>
                </mxCell>
                <mxCell id="11" value="&lt;font style=&quot;font-size: 11px&quot;&gt;AI recognizing food&lt;/font&gt;" style="ellipse;whiteSpace=wrap;html=1;" vertex="1" parent="1">
                    <mxGeometry x="380" y="120" width="100" height="50" as="geometry"/>
                </mxCell>
                <mxCell id="12" value="&amp;lt;&amp;lt;include&amp;gt;&amp;gt;" style="html=1;verticalAlign=bottom;labelBackgroundColor=none;endArrow=open;endFill=0;dashed=1;exitX=0;exitY=0.5;exitDx=0;exitDy=0;fontSize=10;" edge="1" parent="1" source="11" target="10">
                    <mxGeometry width="160" relative="1" as="geometry">
                        <mxPoint x="320" y="280" as="sourcePoint"/>
                        <mxPoint x="480" y="280" as="targetPoint"/>
                    </mxGeometry>
                </mxCell>
                <mxCell id="13" value="&lt;font style=&quot;font-size: 9px&quot;&gt;Succesfully generating virtual items&lt;/font&gt;" style="ellipse;whiteSpace=wrap;html=1;" vertex="1" parent="1">
                    <mxGeometry x="530" y="120" width="100" height="50" as="geometry"/>
                </mxCell>
                <mxCell id="14" value="&lt;font style=&quot;font-size: 9px&quot;&gt;Unsuccesfully generating virtual items&lt;/font&gt;" style="ellipse;whiteSpace=wrap;html=1;" vertex="1" parent="1">
                    <mxGeometry x="532" y="200" width="100" height="50" as="geometry"/>
                </mxCell>
                <mxCell id="16" value="&lt;font style=&quot;font-size: 8px&quot;&gt;Comparing fizical object with virtual items&lt;/font&gt;" style="ellipse;whiteSpace=wrap;html=1;" vertex="1" parent="1">
                    <mxGeometry x="710" y="120" width="100" height="50" as="geometry"/>
                </mxCell>
                <mxCell id="17" value="Unvalidating generated items" style="ellipse;whiteSpace=wrap;html=1;fontSize=11;" vertex="1" parent="1">
                    <mxGeometry x="880" y="200" width="100" height="50" as="geometry"/>
                </mxCell>
                <mxCell id="19" value="&lt;font style=&quot;font-size: 10px&quot;&gt;Correcting virtual generated items&lt;/font&gt;" style="ellipse;whiteSpace=wrap;html=1;" vertex="1" parent="1">
                    <mxGeometry x="880" y="290" width="100" height="50" as="geometry"/>
                </mxCell>
                <mxCell id="22" value="&amp;lt;&amp;lt;extend&amp;gt;&amp;gt;" style="html=1;verticalAlign=bottom;labelBackgroundColor=none;endArrow=open;endFill=0;dashed=1;fontSize=10;exitX=0;exitY=0.5;exitDx=0;exitDy=0;entryX=1;entryY=0.5;entryDx=0;entryDy=0;" edge="1" parent="1" source="13" target="11">
                    <mxGeometry width="160" relative="1" as="geometry">
                        <mxPoint x="375.00000000000205" y="155" as="sourcePoint"/>
                        <mxPoint x="310.0000000000002" y="155" as="targetPoint"/>
                    </mxGeometry>
                </mxCell>
                <mxCell id="23" value="&amp;lt;&amp;lt;extend&amp;gt;&amp;gt;" style="html=1;verticalAlign=bottom;labelBackgroundColor=none;endArrow=open;endFill=0;dashed=1;fontSize=10;exitX=0;exitY=0.5;exitDx=0;exitDy=0;" edge="1" parent="1" source="14">
                    <mxGeometry width="160" relative="1" as="geometry">
                        <mxPoint x="540.000000000002" y="155" as="sourcePoint"/>
                        <mxPoint x="480" y="140" as="targetPoint"/>
                    </mxGeometry>
                </mxCell>
                <mxCell id="24" value="" style="edgeStyle=none;html=1;endArrow=none;verticalAlign=bottom;exitX=1;exitY=0.5;exitDx=0;exitDy=0;entryX=0.5;entryY=0.5;entryDx=0;entryDy=0;entryPerimeter=0;" edge="1" parent="1" source="16" target="6">
                    <mxGeometry width="160" relative="1" as="geometry">
                        <mxPoint x="410" y="247.5" as="sourcePoint"/>
                        <mxPoint x="505" y="242.5" as="targetPoint"/>
                    </mxGeometry>
                </mxCell>
                <mxCell id="25" value="" style="edgeStyle=none;html=1;endArrow=none;verticalAlign=bottom;exitX=1;exitY=0.5;exitDx=0;exitDy=0;entryX=0.5;entryY=0.5;entryDx=0;entryDy=0;entryPerimeter=0;" edge="1" parent="1" source="19" target="6">
                    <mxGeometry width="160" relative="1" as="geometry">
                        <mxPoint x="939.9999999999957" y="155" as="sourcePoint"/>
                        <mxPoint x="972.5" y="140" as="targetPoint"/>
                    </mxGeometry>
                </mxCell>
                <mxCell id="27" value="&amp;lt;&amp;lt;extend&amp;gt;&amp;gt;" style="html=1;verticalAlign=bottom;labelBackgroundColor=none;endArrow=open;endFill=0;dashed=1;fontSize=10;exitX=0;exitY=0.5;exitDx=0;exitDy=0;entryX=1;entryY=0.5;entryDx=0;entryDy=0;" edge="1" parent="1" source="16" target="13">
                    <mxGeometry width="160" relative="1" as="geometry">
                        <mxPoint x="542" y="215" as="sourcePoint"/>
                        <mxPoint x="490" y="150" as="targetPoint"/>
                    </mxGeometry>
                </mxCell>
                <mxCell id="28" value="Validating generated items" style="ellipse;whiteSpace=wrap;html=1;fontSize=11;" vertex="1" parent="1">
                    <mxGeometry x="710" y="200" width="100" height="50" as="geometry"/>
                </mxCell>
                <mxCell id="29" value="&amp;lt;&amp;lt;extend&amp;gt;&amp;gt;" style="html=1;verticalAlign=bottom;labelBackgroundColor=none;endArrow=open;endFill=0;dashed=1;fontSize=10;exitX=0.5;exitY=0;exitDx=0;exitDy=0;" edge="1" parent="1" source="28">
                    <mxGeometry width="160" relative="1" as="geometry">
                        <mxPoint x="840.0000000000039" y="155" as="sourcePoint"/>
                        <mxPoint x="760" y="170" as="targetPoint"/>
                    </mxGeometry>
                </mxCell>
                <mxCell id="30" value="&amp;lt;&amp;lt;extend&amp;gt;&amp;gt;" style="html=1;verticalAlign=bottom;labelBackgroundColor=none;endArrow=open;endFill=0;dashed=1;fontSize=10;exitX=0;exitY=0.5;exitDx=0;exitDy=0;entryX=1;entryY=1;entryDx=0;entryDy=0;" edge="1" parent="1" source="17" target="16">
                    <mxGeometry width="160" relative="1" as="geometry">
                        <mxPoint x="799.9999999999998" y="215" as="sourcePoint"/>
                        <mxPoint x="840" y="160" as="targetPoint"/>
                    </mxGeometry>
                </mxCell>
                <mxCell id="32" value="&amp;lt;&amp;lt;extend&amp;gt;&amp;gt;" style="html=1;verticalAlign=bottom;labelBackgroundColor=none;endArrow=open;endFill=0;dashed=1;fontSize=10;exitX=0.5;exitY=0;exitDx=0;exitDy=0;entryX=0.5;entryY=1;entryDx=0;entryDy=0;" edge="1" parent="1" source="19" target="17">
                    <mxGeometry width="160" relative="1" as="geometry">
                        <mxPoint x="800" y="275" as="sourcePoint"/>
                        <mxPoint x="854.6446609406726" y="172.67766952966383" as="targetPoint"/>
                    </mxGeometry>
                </mxCell>
                <mxCell id="34" value="&amp;lt;&amp;lt;extend&amp;gt;&amp;gt;" style="html=1;verticalAlign=bottom;labelBackgroundColor=none;endArrow=open;endFill=0;dashed=1;fontSize=10;exitX=0.023;exitY=0.387;exitDx=0;exitDy=0;entryX=0.5;entryY=1;entryDx=0;entryDy=0;exitPerimeter=0;" edge="1" parent="1" source="19" target="14">
                    <mxGeometry x="-0.1789" y="-5" width="160" relative="1" as="geometry">
                        <mxPoint x="890" y="235" as="sourcePoint"/>
                        <mxPoint x="805.3553390593274" y="172.67766952966372" as="targetPoint"/>
                        <mxPoint as="offset"/>
                    </mxGeometry>
                </mxCell>
                <mxCell id="35" value="&amp;lt;&amp;lt;extend&amp;gt;&amp;gt;" style="html=1;verticalAlign=bottom;labelBackgroundColor=none;endArrow=open;endFill=0;dashed=1;fontSize=10;exitX=1;exitY=1;exitDx=0;exitDy=0;" edge="1" parent="1" source="28" target="19">
                    <mxGeometry width="160" relative="1" as="geometry">
                        <mxPoint x="890" y="235" as="sourcePoint"/>
                        <mxPoint x="805.3553390593274" y="172.67766952966372" as="targetPoint"/>
                    </mxGeometry>
                </mxCell>
                <mxCell id="36" value="Generating bill" style="ellipse;whiteSpace=wrap;html=1;fontSize=11;" vertex="1" parent="1">
                    <mxGeometry x="532" y="280" width="100" height="50" as="geometry"/>
                </mxCell>
                <mxCell id="37" value="&amp;lt;&amp;lt;extend&amp;gt;&amp;gt;" style="html=1;verticalAlign=bottom;labelBackgroundColor=none;endArrow=open;endFill=0;dashed=1;fontSize=10;exitX=1;exitY=0;exitDx=0;exitDy=0;entryX=0;entryY=1;entryDx=0;entryDy=0;" edge="1" parent="1" source="36" target="28">
                    <mxGeometry x="-0.4813" y="-13" width="160" relative="1" as="geometry">
                        <mxPoint x="892.3000000000002" y="319.35" as="sourcePoint"/>
                        <mxPoint x="592" y="260" as="targetPoint"/>
                        <mxPoint as="offset"/>
                    </mxGeometry>
                </mxCell>
                <mxCell id="39" value="Storing bills" style="ellipse;whiteSpace=wrap;html=1;fontSize=11;" vertex="1" parent="1">
                    <mxGeometry x="880" y="350" width="100" height="50" as="geometry"/>
                </mxCell>
                <mxCell id="40" value="Storing blueprints of virtual items" style="ellipse;whiteSpace=wrap;html=1;fontSize=10;" vertex="1" parent="1">
                    <mxGeometry x="880" y="410" width="100" height="50" as="geometry"/>
                </mxCell>
                <mxCell id="41" value="" style="edgeStyle=none;html=1;endArrow=none;verticalAlign=bottom;exitX=1;exitY=0.5;exitDx=0;exitDy=0;entryX=0;entryY=0.5;entryDx=0;entryDy=0;entryPerimeter=0;" edge="1" parent="1" source="39" target="8">
                    <mxGeometry width="160" relative="1" as="geometry">
                        <mxPoint x="990" y="325" as="sourcePoint"/>
                        <mxPoint x="1065" y="155" as="targetPoint"/>
                    </mxGeometry>
                </mxCell>
                <mxCell id="42" value="" style="edgeStyle=none;html=1;endArrow=none;verticalAlign=bottom;exitX=1;exitY=0.5;exitDx=0;exitDy=0;entryX=0;entryY=0;entryDx=0;entryDy=37.5;entryPerimeter=0;" edge="1" parent="1" source="40" target="8">
                    <mxGeometry width="160" relative="1" as="geometry">
                        <mxPoint x="990" y="395" as="sourcePoint"/>
                        <mxPoint x="1030" y="420" as="targetPoint"/>
                    </mxGeometry>
                </mxCell>
                <mxCell id="44" value="Gererating virtual items" style="ellipse;whiteSpace=wrap;html=1;fontSize=11;" vertex="1" parent="1">
                    <mxGeometry x="230" y="330" width="100" height="50" as="geometry"/>
                </mxCell>
                <mxCell id="45" value="AI traing recognition" style="ellipse;whiteSpace=wrap;html=1;fontSize=11;" vertex="1" parent="1">
                    <mxGeometry x="230" y="410" width="100" height="50" as="geometry"/>
                </mxCell>
                <mxCell id="46" value="Succesful traning" style="ellipse;whiteSpace=wrap;html=1;fontSize=11;" vertex="1" parent="1">
                    <mxGeometry x="380" y="410" width="100" height="50" as="geometry"/>
                </mxCell>
                <mxCell id="47" value="Unsuccesful traning" style="ellipse;whiteSpace=wrap;html=1;fontSize=11;" vertex="1" parent="1">
                    <mxGeometry x="380" y="330" width="100" height="50" as="geometry"/>
                </mxCell>
                <mxCell id="48" value="&amp;lt;&amp;lt;extend&amp;gt;&amp;gt;" style="html=1;verticalAlign=bottom;labelBackgroundColor=none;endArrow=open;endFill=0;dashed=1;fontSize=10;exitX=0.5;exitY=0;exitDx=0;exitDy=0;entryX=0.5;entryY=1;entryDx=0;entryDy=0;" edge="1" parent="1" source="45" target="44">
                    <mxGeometry width="160" relative="1" as="geometry">
                        <mxPoint x="542" y="235" as="sourcePoint"/>
                        <mxPoint x="490" y="150" as="targetPoint"/>
                    </mxGeometry>
                </mxCell>
                <mxCell id="49" value="&amp;lt;&amp;lt;extend&amp;gt;&amp;gt;" style="html=1;verticalAlign=bottom;labelBackgroundColor=none;endArrow=open;endFill=0;dashed=1;fontSize=10;exitX=0;exitY=0.5;exitDx=0;exitDy=0;entryX=1;entryY=0.5;entryDx=0;entryDy=0;" edge="1" parent="1" source="46" target="45">
                    <mxGeometry x="-0.2" y="25" width="160" relative="1" as="geometry">
                        <mxPoint x="290" y="420" as="sourcePoint"/>
                        <mxPoint x="290" y="390" as="targetPoint"/>
                        <mxPoint as="offset"/>
                    </mxGeometry>
                </mxCell>
                <mxCell id="50" value="&amp;lt;&amp;lt;extend&amp;gt;&amp;gt;" style="html=1;verticalAlign=bottom;labelBackgroundColor=none;endArrow=open;endFill=0;dashed=1;fontSize=10;exitX=0;exitY=0.5;exitDx=0;exitDy=0;entryX=1.008;entryY=0.368;entryDx=0;entryDy=0;entryPerimeter=0;" edge="1" parent="1" source="47" target="45">
                    <mxGeometry width="160" relative="1" as="geometry">
                        <mxPoint x="390" y="445" as="sourcePoint"/>
                        <mxPoint x="330" y="420" as="targetPoint"/>
                    </mxGeometry>
                </mxCell>
                <mxCell id="51" value="Deleting virtual items" style="ellipse;whiteSpace=wrap;html=1;fontSize=11;" vertex="1" parent="1">
                    <mxGeometry x="230" y="260" width="100" height="50" as="geometry"/>
                </mxCell>
                <mxCell id="52" value="" style="edgeStyle=none;html=1;endArrow=none;verticalAlign=bottom;exitX=0;exitY=0.5;exitDx=0;exitDy=0;entryX=0.5;entryY=0.5;entryDx=0;entryDy=0;entryPerimeter=0;" edge="1" parent="1" source="10" target="2">
                    <mxGeometry width="160" relative="1" as="geometry">
                        <mxPoint x="990" y="325" as="sourcePoint"/>
                        <mxPoint x="1065" y="155" as="targetPoint"/>
                    </mxGeometry>
                </mxCell>
                <mxCell id="54" value="" style="edgeStyle=none;html=1;endArrow=none;verticalAlign=bottom;exitX=0;exitY=0.5;exitDx=0;exitDy=0;entryX=0.5;entryY=0.5;entryDx=0;entryDy=0;entryPerimeter=0;" edge="1" parent="1" source="51" target="3">
                    <mxGeometry width="160" relative="1" as="geometry">
                        <mxPoint x="230" y="155" as="sourcePoint"/>
                        <mxPoint x="115" y="155" as="targetPoint"/>
                    </mxGeometry>
                </mxCell>
                <mxCell id="55" value="" style="edgeStyle=none;html=1;endArrow=none;verticalAlign=bottom;exitX=0;exitY=0.5;exitDx=0;exitDy=0;entryX=0.5;entryY=0.5;entryDx=0;entryDy=0;entryPerimeter=0;" edge="1" parent="1" source="44" target="3">
                    <mxGeometry width="160" relative="1" as="geometry">
                        <mxPoint x="240" y="295" as="sourcePoint"/>
                        <mxPoint x="115" y="350" as="targetPoint"/>
                    </mxGeometry>
                </mxCell>
                <mxCell id="57" value="&amp;lt;&amp;lt;extend&amp;gt;&amp;gt;" style="html=1;verticalAlign=bottom;labelBackgroundColor=none;endArrow=open;endFill=0;dashed=1;fontSize=10;exitX=1;exitY=1;exitDx=0;exitDy=0;" edge="1" parent="1" source="51" target="47">
                    <mxGeometry width="160" relative="1" as="geometry">
                        <mxPoint x="390" y="365" as="sourcePoint"/>
                        <mxPoint x="340.79999999999995" y="438.4" as="targetPoint"/>
                    </mxGeometry>
                </mxCell>
                <mxCell id="58" value="&amp;lt;&amp;lt;extend&amp;gt;&amp;gt;" style="html=1;verticalAlign=bottom;labelBackgroundColor=none;endArrow=open;endFill=0;dashed=1;fontSize=10;exitX=0;exitY=0.5;exitDx=0;exitDy=0;entryX=1;entryY=0.5;entryDx=0;entryDy=0;" edge="1" parent="1" source="40" target="46">
                    <mxGeometry width="160" relative="1" as="geometry">
                        <mxPoint x="390" y="365" as="sourcePoint"/>
                        <mxPoint x="340.79999999999995" y="438.4" as="targetPoint"/>
                    </mxGeometry>
                </mxCell>
                <mxCell id="59" value="&amp;lt;&amp;lt;extend&amp;gt;&amp;gt;" style="html=1;verticalAlign=bottom;labelBackgroundColor=none;endArrow=open;endFill=0;dashed=1;fontSize=10;entryX=0;entryY=0.5;entryDx=0;entryDy=0;" edge="1" parent="1" source="36" target="39">
                    <mxGeometry x="-0.4813" y="-13" width="160" relative="1" as="geometry">
                        <mxPoint x="627.3553390593274" y="297.3223304703363" as="sourcePoint"/>
                        <mxPoint x="734.6446609406726" y="252.67766952966372" as="targetPoint"/>
                        <mxPoint as="offset"/>
                    </mxGeometry>
                </mxCell>
                <mxCell id="60" value="Paying bill" style="ellipse;whiteSpace=wrap;html=1;" vertex="1" parent="1">
                    <mxGeometry x="220" y="190" width="100" height="50" as="geometry"/>
                </mxCell>
                <mxCell id="61" value="&amp;lt;&amp;lt;extend&amp;gt;&amp;gt;" style="html=1;verticalAlign=bottom;labelBackgroundColor=none;endArrow=open;endFill=0;dashed=1;fontSize=10;entryX=0;entryY=0.5;entryDx=0;entryDy=0;exitX=1;exitY=0.5;exitDx=0;exitDy=0;" edge="1" parent="1" source="60" target="36">
                    <mxGeometry x="-0.4813" y="-13" width="160" relative="1" as="geometry">
                        <mxPoint x="637.2546921229814" y="325.6302968074117" as="sourcePoint"/>
                        <mxPoint x="890" y="385" as="targetPoint"/>
                        <mxPoint as="offset"/>
                    </mxGeometry>
                </mxCell>
                <mxCell id="62" value="" style="edgeStyle=none;html=1;endArrow=none;verticalAlign=bottom;exitX=0;exitY=0.5;exitDx=0;exitDy=0;entryX=0.5;entryY=0.5;entryDx=0;entryDy=0;entryPerimeter=0;" edge="1" parent="1" source="60" target="2">
                    <mxGeometry width="160" relative="1" as="geometry">
                        <mxPoint x="230" y="155" as="sourcePoint"/>
                        <mxPoint x="115" y="155" as="targetPoint"/>
                    </mxGeometry>
                </mxCell>
            </root>
        </mxGraphModel>
    </diagram>
</mxfile>